<svg class="svg-icon" style="width: 1em;height: 1em;vertical-align: middle;fill: currentColor;overflow: hidden;" viewBox="0 0 1024 1024" version="1.1" xmlns="http://www.w3.org/2000/svg"><path d="M977.895 492.472c-2.087-2.797-52.041-69.269-133.083-136.448-47.916-39.72-96.843-71.441-145.42-94.281-61.809-29.062-123.277-43.797-182.7-43.797-59.422 0-120.892 14.735-182.7 43.797-48.577 22.84-97.504 54.562-145.421 94.281-81.042 67.179-130.996 133.651-133.083 136.448l-12.494 16.745 12.494 16.745c2.087 2.796 52.041 69.269 133.083 136.447 47.917 39.72 96.844 71.44 145.421 94.281 61.809 29.062 123.278 43.797 182.7 43.797 59.423 0 120.892-14.735 182.7-43.797 48.577-22.841 97.504-54.562 145.42-94.281 81.042-67.179 130.996-133.651 133.083-136.447l12.494-16.745-12.494-16.745zM808.096 620.104c-68.675 56.743-174.978 124.383-291.404 124.383s-222.729-67.64-291.405-124.383c-52.717-43.558-92.061-87.642-111.455-110.878 47.075-56.319 211.736-235.28 402.86-235.28 116.427 0 222.729 67.64 291.404 124.383 52.722 43.561 92.066 87.647 111.463 110.888-19.397 23.24-58.742 67.326-111.463 110.887z"  /><path d="M512.941 317.474c-106.416 0-192.992 86.576-192.992 192.992s86.576 192.992 192.992 192.992 192.991-86.576 192.991-192.992-86.575-192.992-192.991-192.992z m0 329.984c-75.538 0-136.992-61.454-136.992-136.992 0-75.538 61.454-136.992 136.992-136.992 75.537 0 136.991 61.454 136.991 136.992 0.001 75.538-61.453 136.992-136.991 136.992z"  /></svg>